<?xml version="1.0" encoding="UTF-8"?>
<svg xmlns="http://www.w3.org/2000/svg" width="204" height="25" viewBox="0 0 204 25" fill="none">
  <g clip-path="url(#clip0_627_517)">
    <path d="M7.29 0.57666L12.8 16.7867H12.87L18.09 0.57666H25.38V24.1567H20.53V7.45666H20.46L14.68 24.1567H10.69L4.92 7.61666H4.85V24.1567H0V0.57666H7.29Z" fill="#222221"></path>
    <path d="M47.5604 0.57666V4.94666H35.1204V9.99666H46.5404V14.0267H35.1204V19.8067H47.8304V24.1667H29.9404V0.57666H47.5704H47.5604Z" fill="#222221"></path>
    <path d="M61.4903 0.57666C63.0103 0.57666 64.4203 0.81666 65.7303 1.30666C67.0403 1.79666 68.1703 2.51666 69.1303 3.48666C70.0903 4.45666 70.8403 5.66666 71.3703 7.11666C71.9103 8.56666 72.1803 10.2767 72.1803 12.2367C72.1803 13.9567 71.9603 15.5367 71.5203 16.9867C71.0803 18.4367 70.4103 19.6967 69.5203 20.7467C68.6303 21.8067 67.5203 22.6367 66.1903 23.2367C64.8603 23.8367 63.2903 24.1467 61.4903 24.1467H51.3203V0.57666H61.4903ZM61.1303 19.7867C61.8803 19.7867 62.6003 19.6667 63.3103 19.4267C64.0103 19.1867 64.6403 18.7867 65.1903 18.2267C65.7403 17.6667 66.1803 16.9367 66.5103 16.0367C66.8403 15.1367 67.0003 14.0367 67.0003 12.7367C67.0003 11.5467 66.8803 10.4767 66.6503 9.51666C66.4203 8.55666 66.0403 7.73666 65.5103 7.05666C64.9803 6.37666 64.2803 5.85666 63.4103 5.48666C62.5403 5.12666 61.4703 4.94666 60.1903 4.94666H56.4903V19.7967H61.1103L61.1303 19.7867Z" fill="#222221"></path>
    <path d="M80.9603 0.57666V24.1567H75.7803V0.57666H80.9603Z" fill="#222221"></path>
    <path d="M97.2698 0.57666L106.08 24.1467H100.7L98.9198 18.8967H90.1098L88.2598 24.1467H83.0498L91.9598 0.57666H97.2698ZM97.5698 15.0367L94.5998 6.38666H94.5298L91.4598 15.0367H97.5698Z" fill="#222221"></path>
    <path d="M152.42 0.57666L161.23 24.1467H155.85L154.07 18.8967H145.26L143.41 24.1467H138.2L147.11 0.57666H152.42ZM152.72 15.0367L149.75 6.38666H149.68L146.61 15.0367H152.72Z" fill="#222221"></path>
    <path d="M175.99 0.57666C177.05 0.57666 178 0.74666 178.84 1.08666C179.69 1.42666 180.41 1.89666 181.02 2.48666C181.62 3.07666 182.09 3.76666 182.41 4.54666C182.73 5.32666 182.89 6.16666 182.89 7.06666C182.89 8.45666 182.6 9.65666 182.02 10.6667C181.44 11.6767 180.49 12.4467 179.17 12.9767V13.0467C179.81 13.2267 180.34 13.4967 180.75 13.8567C181.17 14.2167 181.51 14.6467 181.77 15.1467C182.03 15.6467 182.23 16.1867 182.35 16.7767C182.47 17.3667 182.55 17.9667 182.6 18.5567C182.62 18.9267 182.64 19.3667 182.67 19.8767C182.69 20.3867 182.73 20.8967 182.79 21.4267C182.85 21.9567 182.93 22.4567 183.05 22.9267C183.17 23.3967 183.35 23.7967 183.59 24.1267H178.41C178.12 23.3767 177.95 22.4867 177.88 21.4567C177.81 20.4267 177.72 19.4367 177.58 18.4867C177.4 17.2567 177.03 16.3567 176.46 15.7767C175.89 15.2067 174.95 14.9167 173.65 14.9167H168.47V24.1267H163.29V0.57666H176H175.99ZM174.14 11.2367C175.33 11.2367 176.22 10.9767 176.81 10.4467C177.4 9.91666 177.7 9.05666 177.7 7.87666C177.7 6.69666 177.4 5.90666 176.81 5.38666C176.22 4.86666 175.33 4.60666 174.14 4.60666H168.46V11.2367H174.14Z" fill="#222221"></path>
    <path d="M184.67 4.94666V0.57666H203.98V4.94666H196.92V24.1567H191.74V4.94666H184.68H184.67Z" fill="#222221"></path>
    <path d="M127.34 24.1467C126.83 23.6367 126.35 23.1266 125.81 22.4867C124.3 23.6767 122.19 24.5167 119.45 24.5167C113.83 24.5167 111.36 21.1966 111.36 17.9566C111.36 14.8867 113.11 12.6867 115.78 11.2967V11.1767C114.78 10.0667 114 8.35665 114 6.70665C114 3.75665 116.32 0.56665 120.98 0.56665C124.56 0.56665 127.26 2.67665 127.26 5.99665C127.26 8.34665 125.88 10.3467 122.68 11.9567L122.66 12.0967C123.98 13.5767 125.41 15.2767 126.53 16.4267C127.48 14.9667 128.18 12.8367 128.51 10.7767H133.17C132.55 14.3067 131.39 17.2966 129.32 19.5767C130.64 21.0767 131.99 22.5966 133.41 24.1266H127.34V24.1467ZM123.36 19.5667C121.93 18.1467 120.04 16.0167 118.14 13.8867C117.19 14.5767 116.31 15.5867 116.31 17.0967C116.31 19.0767 117.79 20.7367 120.18 20.7367C121.55 20.7367 122.67 20.2267 123.36 19.5667ZM118.7 6.21665C118.7 7.39665 119.23 8.42665 120.28 9.55665C121.96 8.41665 122.8 7.49665 122.8 6.15665C122.8 5.06665 122.16 3.86665 120.79 3.86665C119.42 3.86665 118.7 5.01665 118.7 6.22665V6.21665Z" fill="#222221"></path>
  </g>
  <defs>
    <clipPath id="clip0_627_517">
      <rect width="203.98" height="23.95" fill="white" transform="translate(0 0.57666)"></rect>
    </clipPath>
  </defs>
</svg>
